<svg width="58" height="66" viewBox="0 0 58 66" fill="none" xmlns="http://www.w3.org/2000/svg">
<path d="M0 13.1484C0 6.6862 6.03741 1.92087 12.3229 3.42197L28.9332 7.38887L45.5435 3.42197C51.829 1.92087 57.8664 6.6862 57.8664 13.1484V52.8516C57.8664 59.3138 51.829 64.0791 45.5435 62.578L31.2561 59.1659C29.729 58.8012 28.1374 58.8012 26.6103 59.1659L12.3229 62.578C6.03742 64.0791 0 59.3138 0 52.8516V13.1484Z" fill="url(#paint0_linear_1_151)"/>
<path d="M28.8162 11.7056L28.9323 11.7333L29.0485 11.7056L31.7781 11.0537L31.6619 10.5674L38.4859 8.93763L38.6021 9.42395L41.3317 8.77207C41.9664 8.62049 42.5976 8.53623 43.219 8.51378L43.201 8.01411C44.9258 7.95181 46.5832 8.34167 48.0465 9.08375L47.8203 9.52968C48.9566 10.1059 49.9699 10.9057 50.7943 11.877L51.1755 11.5535C52.2372 12.8044 53.0014 14.3259 53.3415 16.018L52.8513 16.1165C52.9738 16.7261 53.0384 17.3597 53.0384 18.0122V20.2326H53.5384V25.7837H53.0384V30.2246H53.5384V35.7757H53.0384V40.2165H53.5384V45.7676H53.0384V47.988C53.0384 48.6406 52.9738 49.2741 52.8513 49.8837L53.3415 49.9823C53.0014 51.6744 52.2372 53.1958 51.1755 54.4467L50.7943 54.1232C49.9699 55.0945 48.9566 55.8943 47.8203 56.4706L48.0465 56.9165C46.5832 57.6586 44.9258 58.0484 43.201 57.9861L43.219 57.4865C42.5976 57.464 41.9664 57.3798 41.3317 57.2282L39.1183 56.6996L39.0021 57.1859L33.4686 55.8644L33.5848 55.3781L31.3713 54.8494C31.0157 54.7645 30.6568 54.6984 30.296 54.6512L30.231 55.1469C29.3689 55.034 28.4957 55.034 27.6336 55.1469L27.5687 54.6512C27.2079 54.6984 26.8489 54.7645 26.4933 54.8494L24.2799 55.378L24.396 55.8644L18.8625 57.1859L18.7463 56.6996L16.5329 57.2282C15.8982 57.3798 15.267 57.464 14.6456 57.4865L14.6636 57.9861C12.9388 58.0484 11.2815 57.6586 9.81814 56.9165L10.0443 56.4706C8.90802 55.8943 7.89471 55.0945 7.0703 54.1232L6.6891 54.4467C5.62741 53.1958 4.86322 51.6744 4.52316 49.9823L5.01336 49.8837C4.89085 49.2741 4.82617 48.6406 4.82617 47.988V45.7676H4.32617V40.2165H4.82617V35.7757H4.32617V30.2246H4.82617V25.7837H4.32617V20.2326H4.82617V18.0122C4.82617 17.3597 4.89085 16.7261 5.01336 16.1165L4.52316 16.018C4.86322 14.3259 5.6274 12.8044 6.68909 11.5535L7.0703 11.877C7.8947 10.9057 8.90802 10.1059 10.0443 9.52968L9.81813 9.08375C11.2814 8.34167 12.9388 7.95181 14.6636 8.01411L14.6456 8.51378C15.267 8.53623 15.8982 8.62049 16.5329 8.77206L19.2625 9.42395L19.3787 8.93763L26.2027 10.5674L26.0866 11.0537L28.8162 11.7056Z" stroke="white" stroke-opacity="0.5" stroke-dasharray="4 5"/>
<path d="M27.7476 52.786C27.5961 52.5777 27.4635 52.3505 27.2931 52.1801C21.1395 46.0265 14.9859 39.854 8.81342 33.7193C8.39687 33.3028 8.3022 32.9241 8.43473 32.3939C9.60865 27.8308 13.6795 24.8392 18.6024 24.9528C22.9193 25.0475 26.8766 28.4556 27.7665 32.8673C27.8801 33.4164 27.9558 33.9655 27.9558 34.5146C27.9748 40.441 27.9558 46.3484 27.9558 52.2748C27.9558 52.3884 27.9369 52.5209 27.9369 52.6345C27.8801 52.6913 27.8233 52.7292 27.7476 52.786Z" fill="white"/>
<path d="M29.9121 52.7859C29.9121 52.3694 29.9121 52.0854 29.9121 51.8203C29.9121 46.2537 29.9121 40.706 29.9121 35.1393C29.9121 29.0425 34.6267 24.593 40.7046 24.9717C44.7754 25.2178 48.6948 28.607 49.4711 32.6021C49.5279 32.8862 49.4332 33.3216 49.2439 33.5299C42.9388 39.8729 36.5959 46.1969 30.2719 52.5209C30.1961 52.5777 30.1015 52.6345 29.9121 52.7859Z" fill="#FA4A6F"/>
<path d="M13.0177 18.2697C12.9988 15.5243 15.233 13.2522 17.9974 13.2143C20.7428 13.1765 23.0907 15.4864 23.0907 18.2508C23.0907 20.9773 20.8186 23.2684 18.092 23.3062C15.3655 23.3441 13.0366 21.0531 13.0177 18.2697Z" fill="white"/>
<path d="M44.8512 18.3455C44.7755 21.1477 42.4466 23.4009 39.7011 23.3062C36.9368 23.2305 34.6836 20.8448 34.7783 18.0994C34.8729 15.3918 37.1829 13.1765 39.8715 13.2143C42.6738 13.2522 44.927 15.5811 44.8512 18.3455Z" fill="#FA4A6F"/>
<defs>
<linearGradient id="paint0_linear_1_151" x1="28.9332" y1="33" x2="28.9332" y2="65.521" gradientUnits="userSpaceOnUse">
<stop stop-color="#4D2771"/>
<stop offset="1" stop-color="#FA4A6F"/>
</linearGradient>
</defs>
</svg>
