<svg width="249" height="106" viewBox="0 0 249 106" fill="none" xmlns="http://www.w3.org/2000/svg">
<path d="M0 13.418C0 6.95573 6.03741 2.1904 12.3229 3.6915L46.7189 11.906L81.1148 3.6915C87.4003 2.1904 93.4377 6.95574 93.4377 13.418V93.1033C93.4377 99.5655 87.4003 104.331 81.1148 102.83L49.0417 95.17C47.5146 94.8053 45.9231 94.8053 44.396 95.17L12.3229 102.83C6.03741 104.331 0 99.5655 0 93.1033V13.418Z" fill="white"/>
<path d="M46.602 18.5775L46.7182 18.6052L46.8343 18.5775L48.8646 18.0926L48.7485 17.6063L53.8242 16.3941L53.9404 16.8804L58.001 15.9107L57.8848 15.4243L62.9606 14.2121L63.0767 14.6985L67.1373 13.7287L67.0211 13.2424L72.0969 12.0302L72.213 12.5165L74.2433 12.0316C74.878 11.8801 75.5093 11.7958 76.1307 11.7734L76.1126 11.2737C77.8374 11.2114 79.4948 11.6012 80.9581 12.3433L80.732 12.7893C81.8682 13.3655 82.8815 14.1653 83.7059 15.1366L84.0871 14.8131C85.1488 16.064 85.913 17.5855 86.2531 19.2776L85.7629 19.3761C85.8854 19.9857 85.9501 20.6193 85.9501 21.2718V23.3029H86.4501V28.3805H85.9501V32.4426H86.4501V37.5203H85.9501V41.5824H86.4501V46.6601H85.9501V50.7222H86.4501V55.7999H85.9501V59.862H86.4501V64.9397H85.9501V69.0018H86.4501V74.0795H85.9501V78.1416H86.4501V83.2192H85.9501V85.2503C85.9501 85.9028 85.8854 86.5364 85.7629 87.146L86.2531 87.2445C85.913 88.9366 85.1488 90.4581 84.0871 91.709L83.7059 91.3855C82.8815 92.3568 81.8682 93.1566 80.7319 93.7328L80.9581 94.1788C79.4948 94.9209 77.8374 95.3107 76.1126 95.2484L76.1307 94.7487C75.5092 94.7263 74.878 94.642 74.2433 94.4905L72.3851 94.0467L72.2689 94.533L67.6234 93.4235L67.7395 92.9372L64.0231 92.0496L63.9069 92.536L59.2613 91.4265L59.3775 90.9402L55.661 90.0526L55.5449 90.5389L50.8993 89.4295L51.0155 88.9432L49.1572 88.4994C48.8016 88.4144 48.4426 88.3483 48.0818 88.3011L48.0169 88.7969C47.1548 88.6839 46.2816 88.6839 45.4195 88.7969L45.3545 88.3011C44.9937 88.3483 44.6348 88.4144 44.2792 88.4994L42.4209 88.9432L42.5371 89.4295L37.8915 90.5389L37.7754 90.0526L34.0589 90.9402L34.175 91.4265L29.5295 92.536L29.4133 92.0497L25.6969 92.9372L25.813 93.4235L21.1674 94.533L21.0513 94.0467L19.1931 94.4905C18.5584 94.642 17.9271 94.7263 17.3057 94.7487L17.3238 95.2484C15.599 95.3107 13.9416 94.9209 12.4783 94.1788L12.7044 93.7328C11.5682 93.1566 10.5549 92.3568 9.73046 91.3855L9.34925 91.709C8.28756 90.4581 7.52338 88.9366 7.18332 87.2445L7.67352 87.146C7.551 86.5364 7.48633 85.9028 7.48633 85.2503V83.2193H6.98633V78.1416H7.48633V74.0795H6.98633V69.0018H7.48633V64.9397H6.98633V59.862H7.48633V55.7999H6.98633V50.7222H7.48633V46.6601H6.98633V41.5824H7.48633V37.5203H6.98633V32.4426H7.48633V28.3805H6.98633V23.3029H7.48633V21.2718C7.48633 20.6193 7.551 19.9857 7.67352 19.3761L7.18332 19.2776C7.52338 17.5855 8.28756 16.064 9.34925 14.8131L9.73046 15.1366C10.5549 14.1653 11.5682 13.3655 12.7044 12.7893L12.4783 12.3433C13.9416 11.6013 15.599 11.2114 17.3238 11.2737L17.3057 11.7734C17.9271 11.7958 18.5584 11.8801 19.1931 12.0316L21.2234 12.5165L21.3395 12.0302L26.4152 13.2424L26.2991 13.7287L30.3597 14.6985L30.4758 14.2121L35.5516 15.4243L35.4354 15.9107L39.496 16.8804L39.6122 16.3941L44.6879 17.6063L44.5718 18.0926L46.602 18.5775Z" stroke="url(#paint0_linear_1_386)" stroke-dasharray="4 5"/>
<path d="M44.8041 85.2095C44.5595 84.8732 44.3455 84.5063 44.0704 84.2312C34.1341 74.2949 24.1978 64.328 14.2309 54.4223C13.5583 53.7497 13.4054 53.1382 13.6194 52.2822C15.515 44.914 22.0882 40.0835 30.0373 40.2669C37.0079 40.4198 43.3977 45.9229 44.8347 53.0465C45.0181 53.9331 45.1404 54.8197 45.1404 55.7064C45.171 65.2758 45.1404 74.8146 45.1404 84.384C45.1404 84.5675 45.1098 84.7815 45.1098 84.9649C45.0181 85.0566 44.9264 85.1178 44.8041 85.2095Z" fill="url(#paint1_linear_1_386)"/>
<path d="M48.3008 85.2094C48.3008 84.5368 48.3008 84.0782 48.3008 83.6501C48.3008 74.6616 48.3008 65.7037 48.3008 56.7151C48.3008 46.8706 55.9135 39.6859 65.7275 40.2973C72.3007 40.6948 78.6294 46.1674 79.8829 52.6183C79.9746 53.0769 79.8218 53.7801 79.516 54.1164C69.3351 64.3584 59.0931 74.5699 48.8817 84.7813C48.7594 84.8731 48.6065 84.9648 48.3008 85.2094Z" fill="url(#paint2_linear_1_386)"/>
<path d="M21.0178 29.4756C20.9872 25.0425 24.5948 21.3737 29.0585 21.3126C33.4916 21.2514 37.2827 24.9814 37.2827 29.445C37.2827 33.8476 33.6139 37.5469 29.2114 37.6081C24.8088 37.6692 21.0483 33.9699 21.0178 29.4756Z" fill="white"/>
<path d="M21.0178 29.4756C20.9872 25.0425 24.5948 21.3737 29.0585 21.3126C33.4916 21.2514 37.2827 24.9814 37.2827 29.445C37.2827 33.8476 33.6139 37.5469 29.2114 37.6081C24.8088 37.6692 21.0483 33.9699 21.0178 29.4756Z" fill="url(#paint3_linear_1_386)"/>
<path d="M72.4219 29.5979C72.2996 34.1228 68.5391 37.761 64.106 37.6081C59.6423 37.4858 56.0041 33.6336 56.157 29.2005C56.3099 24.8285 60.0398 21.2515 64.3812 21.3126C68.906 21.3737 72.5442 25.1343 72.4219 29.5979Z" fill="white"/>
<path d="M72.4219 29.5979C72.2996 34.1228 68.5391 37.761 64.106 37.6081C59.6423 37.4858 56.0041 33.6336 56.157 29.2005C56.3099 24.8285 60.0398 21.2515 64.3812 21.3126C68.906 21.3737 72.5442 25.1343 72.4219 29.5979Z" fill="url(#paint4_linear_1_386)"/>
<path d="M143.431 49.3287H134.414L128.019 40.3645H127.599H123.511V49.3287H115.752V12.6328H127.599C132.632 12.6328 136.476 13.8385 139.133 16.25C141.789 18.6265 143.117 22.034 143.117 26.4724C143.117 32.5884 140.688 36.7123 135.83 38.8442L143.431 49.3287ZM123.511 19.8147V33.1825H127.599C132.597 33.1825 135.096 30.9458 135.096 26.4724C135.096 22.034 132.597 19.8147 127.599 19.8147H123.511Z" fill="white"/>
<path d="M172.861 19.7623H157.606V28.6742H171.183V35.594H157.606V42.1992H172.861V49.3287H149.847V12.6328H172.861V19.7623Z" fill="white"/>
<path d="M202.903 49.3287L200.911 43.2477H186.705L184.712 49.3287H176.639L189.378 12.6328H198.29L211.029 49.3287H202.903ZM188.906 36.6949H198.762L193.939 22.0689H193.729L188.906 36.6949Z" fill="white"/>
<path d="M223.237 42.0944H237.81V49.3287H215.478V12.6328H223.237V42.0944Z" fill="white"/>
<path d="M147.677 57.1922H155.908V93.8881H148.359V72.1326H148.149L138.136 93.8881H133.523L123.511 72.1326H123.353V93.8881H115.752V57.1922H123.982L135.725 82.2502H135.935L147.677 57.1922Z" fill="white"/>
<path d="M186.623 93.8881L184.631 87.807H170.425L168.433 93.8881H160.36L173.098 57.1922H182.01L194.749 93.8881H186.623ZM172.627 81.2542H182.482L177.659 66.6282H177.449L172.627 81.2542Z" fill="white"/>
<path d="M220.307 57.1922V64.4265H210.242V93.8881H202.483V64.4265H192.471V57.1922H220.307Z" fill="white"/>
<path d="M248.321 64.3216H233.066V73.2335H246.643V80.1533H233.066V86.7586H248.321V93.8881H225.307V57.1922H248.321V64.3216Z" fill="white"/>
<defs>
<linearGradient id="paint0_linear_1_386" x1="46.7182" y1="8.60236" x2="46.7182" y2="97.9198" gradientUnits="userSpaceOnUse">
<stop stop-color="#FA4A6F"/>
<stop offset="1" stop-color="#532B79"/>
</linearGradient>
<linearGradient id="paint1_linear_1_386" x1="29.3416" y1="45.0207" x2="29.3416" y2="85.2095" gradientUnits="userSpaceOnUse">
<stop stop-color="#4D2771"/>
<stop offset="1" stop-color="#FA4A6F"/>
</linearGradient>
<linearGradient id="paint2_linear_1_386" x1="64.1051" y1="44.7724" x2="64.1051" y2="85.2094" gradientUnits="userSpaceOnUse">
<stop stop-color="#4D2771"/>
<stop offset="1" stop-color="#FA4A6F"/>
</linearGradient>
<linearGradient id="paint3_linear_1_386" x1="29.1501" y1="29.4603" x2="29.1501" y2="37.6088" gradientUnits="userSpaceOnUse">
<stop stop-color="#4D2771"/>
<stop offset="1" stop-color="#FA4A6F"/>
</linearGradient>
<linearGradient id="paint4_linear_1_386" x1="64.2886" y1="29.4623" x2="64.2886" y2="37.6128" gradientUnits="userSpaceOnUse">
<stop stop-color="#4D2771"/>
<stop offset="1" stop-color="#FA4A6F"/>
</linearGradient>
</defs>
</svg>
